<svg xmlns="http://www.w3.org/2000/svg" xmlns:xlink="http://www.w3.org/1999/xlink" width="200" zoomAndPan="magnify" viewBox="0 0 150 37.5" height="50" preserveAspectRatio="xMidYMid meet" version="1.0"><defs><g/></defs><g fill="#000000" fill-opacity="1"><g transform="translate(7.460639, 22.319867)"><g><path d="M 5.097656 0 L 7.347656 0 C 7.957031 0 8.382812 0.0507812 9.878906 0.0507812 C 10.0625 0.0507812 10.046875 -0.0976562 9.878906 -0.0976562 C 8.074219 -0.113281 7.578125 -0.527344 7.578125 -3.074219 L 7.578125 -11.292969 L 8.074219 -11.292969 C 9.304688 -11.292969 11.246094 -9.585938 12.28125 -6.542969 C 12.296875 -6.460938 12.378906 -6.460938 12.378906 -6.558594 L 11.34375 -12.265625 C 11.328125 -12.3125 11.277344 -12.296875 11.246094 -12.265625 C 10.949219 -11.707031 10.308594 -11.507812 8.351562 -11.507812 L 4.109375 -11.507812 C 2.253906 -11.507812 1.511719 -11.707031 1.214844 -12.265625 C 1.167969 -12.296875 1.132812 -12.3125 1.117188 -12.265625 L 0.0820312 -6.558594 C 0.0820312 -6.460938 0.164062 -6.460938 0.199219 -6.542969 C 1.199219 -9.585938 3.140625 -11.292969 4.339844 -11.292969 L 4.882812 -11.292969 L 4.882812 -3.074219 C 4.882812 -0.527344 4.375 -0.113281 2.582031 -0.0976562 C 2.398438 -0.0976562 2.398438 0.0507812 2.582031 0.0507812 C 4.078125 0.0507812 4.488281 0 5.097656 0 Z M 5.097656 0 "/></g></g></g><g fill="#000000" fill-opacity="1"><g transform="translate(19.922662, 22.319867)"><g><path d="M 1.609375 0 L 3.878906 0 C 4.144531 0 4.375 0.0507812 4.933594 0.0507812 C 5.03125 0.0507812 5.03125 -0.0820312 4.933594 -0.0820312 C 3.914062 -0.113281 3.929688 -0.707031 3.929688 -2.003906 L 3.929688 -6.296875 C 4.621094 -7.003906 5.226562 -7.300781 6 -7.300781 C 6.953125 -7.300781 7.578125 -6.839844 7.578125 -4.769531 L 7.578125 -2.003906 C 7.578125 -0.707031 7.613281 -0.113281 6.578125 -0.0820312 C 6.492188 -0.0820312 6.492188 0.0507812 6.578125 0.0507812 C 7.152344 0.0507812 7.382812 0 7.644531 0 L 9.929688 0 C 10.242188 0 10.503906 0.0507812 11.148438 0.0507812 C 11.261719 0.0507812 11.261719 -0.0820312 11.148438 -0.0820312 C 9.964844 -0.113281 9.996094 -0.707031 9.996094 -2.003906 L 9.996094 -4.832031 C 9.996094 -7.429688 9.207031 -8.597656 7.347656 -8.597656 C 5.933594 -8.597656 4.71875 -7.613281 3.929688 -6.527344 L 3.894531 -6.527344 L 3.945312 -8.269531 L 3.945312 -12.609375 C 3.945312 -12.675781 3.894531 -12.707031 3.847656 -12.675781 C 2.828125 -12.265625 1.070312 -11.917969 0.34375 -11.804688 C 0.261719 -11.804688 0.28125 -11.707031 0.34375 -11.6875 C 1.414062 -11.441406 1.527344 -10.539062 1.527344 -9.601562 L 1.546875 -2.003906 C 1.546875 -0.707031 1.578125 -0.113281 0.378906 -0.0820312 C 0.28125 -0.0820312 0.28125 0.0507812 0.378906 0.0507812 C 1.035156 0.0507812 1.296875 0 1.609375 0 Z M 1.609375 0 "/></g></g></g><g fill="#000000" fill-opacity="1"><g transform="translate(31.348922, 22.319867)"><g><path d="M 9.503906 -4.0625 C 8.828125 -2.648438 7.742188 -1.414062 6.015625 -1.414062 C 3.683594 -1.414062 2.679688 -3.207031 2.664062 -5.292969 L 8.8125 -5.292969 C 8.863281 -5.492188 8.878906 -5.640625 8.878906 -5.820312 C 8.878906 -7.101562 7.5625 -8.597656 5.308594 -8.597656 C 2.777344 -8.597656 0.378906 -6.609375 0.378906 -4.109375 C 0.378906 -1.527344 2.269531 0.179688 4.816406 0.179688 C 7.660156 0.179688 9.074219 -2.664062 9.652344 -3.996094 C 9.683594 -4.078125 9.585938 -4.144531 9.503906 -4.0625 Z M 4.964844 -8.367188 C 6.164062 -8.367188 6.722656 -7.53125 6.722656 -6.429688 C 6.722656 -5.769531 6.511719 -5.507812 5.558594 -5.507812 L 2.664062 -5.507812 C 2.730469 -7.332031 3.847656 -8.367188 4.964844 -8.367188 Z M 4.964844 -8.367188 "/></g></g></g><g fill="#000000" fill-opacity="1"><g transform="translate(41.032474, 22.319867)"><g/></g></g><g fill="#000000" fill-opacity="1"><g transform="translate(45.570095, 22.319867)"><g><path d="M 5.671875 -11.722656 C 2.910156 -11.722656 0.507812 -9.914062 0.507812 -7.644531 C 0.507812 -5.015625 3.15625 -3.945312 4.882812 -3.945312 C 5.984375 -3.945312 7.5625 -4.40625 8.613281 -6.164062 C 8.597656 -3.519531 7.808594 0 5.277344 0 C 4.816406 0 4.40625 -0.0507812 3.980469 -0.199219 C 3.46875 -1.035156 3.125 -3.058594 1.859375 -3.058594 C 1.429688 -3.058594 1.035156 -2.730469 1.035156 -2.1875 C 1.035156 -0.855469 3.238281 0.214844 5.046875 0.214844 C 7.925781 0.214844 11.359375 -2.316406 11.359375 -6 C 11.359375 -9.15625 9.125 -11.722656 5.671875 -11.722656 Z M 6.082031 -4.734375 C 4.964844 -4.734375 3.074219 -5.359375 3.074219 -8.285156 C 3.074219 -10.078125 3.832031 -11.492188 5.410156 -11.492188 C 7.136719 -11.492188 8.5 -9.386719 8.613281 -6.578125 C 7.972656 -5.210938 6.839844 -4.734375 6.082031 -4.734375 Z M 6.082031 -4.734375 "/></g></g></g><g fill="#000000" fill-opacity="1"><g transform="translate(57.752627, 22.319867)"><g><path d="M 6.28125 0.214844 C 9.632812 0.214844 12.035156 -2.203125 12.035156 -5.753906 C 12.035156 -9.304688 9.617188 -11.722656 6.265625 -11.722656 C 2.894531 -11.722656 0.492188 -9.304688 0.492188 -5.753906 C 0.492188 -2.203125 2.894531 0.214844 6.28125 0.214844 Z M 6.246094 -0.015625 C 4.40625 -0.015625 3.320312 -2.023438 3.320312 -5.753906 C 3.320312 -9.484375 4.40625 -11.492188 6.246094 -11.492188 C 8.121094 -11.492188 9.207031 -9.484375 9.207031 -5.753906 C 9.207031 -2.023438 8.121094 -0.015625 6.246094 -0.015625 Z M 6.246094 -0.015625 "/></g></g></g><g fill="#000000" fill-opacity="1"><g transform="translate(70.280413, 22.319867)"><g><path d="M 1.644531 -7.59375 C 1.644531 -9.273438 2.316406 -10.0625 2.316406 -10.933594 C 2.316406 -11.34375 2.023438 -11.671875 1.527344 -11.671875 C 1.050781 -11.671875 0.773438 -11.34375 0.773438 -10.933594 C 0.773438 -10.0625 1.429688 -9.273438 1.429688 -7.59375 Z M 1.644531 -7.59375 "/></g></g></g><g fill="#000000" fill-opacity="1"><g transform="translate(73.371258, 22.319867)"><g><path d="M 4.769531 0.214844 C 6.410156 0.214844 8.21875 -0.527344 8.21875 -2.613281 C 8.21875 -3.894531 7.054688 -4.71875 5.34375 -5.210938 L 4.242188 -5.507812 C 2.941406 -5.886719 2.367188 -6.132812 2.367188 -7.035156 C 2.367188 -7.726562 2.878906 -8.382812 3.765625 -8.382812 C 5.113281 -8.382812 6.953125 -6.707031 7.546875 -4.996094 C 7.5625 -4.964844 7.613281 -4.964844 7.613281 -5.015625 L 6.972656 -8.730469 C 6.953125 -8.78125 6.9375 -8.78125 6.90625 -8.730469 C 6.722656 -8.515625 6.542969 -8.300781 6.148438 -8.300781 C 5.558594 -8.300781 4.769531 -8.597656 3.960938 -8.597656 C 2.433594 -8.597656 0.773438 -7.761719 0.773438 -5.902344 C 0.773438 -4.519531 1.792969 -3.730469 3.402344 -3.273438 L 4.539062 -2.941406 C 5.65625 -2.628906 6.625 -2.316406 6.625 -1.414062 C 6.625 -0.625 6 0 4.898438 0 C 3.335938 0 1.609375 -1.511719 0.773438 -3.632812 C 0.738281 -3.667969 0.675781 -3.683594 0.675781 -3.632812 L 1.398438 0.445312 C 1.429688 0.507812 1.464844 0.492188 1.480469 0.445312 C 1.660156 0.214844 1.921875 -0.0664062 2.382812 -0.0664062 C 3.007812 -0.0664062 3.796875 0.214844 4.769531 0.214844 Z M 4.769531 0.214844 "/></g></g></g><g fill="#000000" fill-opacity="1"><g transform="translate(82.15057, 22.319867)"><g/></g></g><g fill="#000000" fill-opacity="1"><g transform="translate(86.688192, 22.319867)"><g><path d="M 14.699219 -0.0820312 C 13.480469 -0.113281 13.136719 -0.492188 13.136719 -2.878906 L 13.136719 -8.632812 C 13.136719 -11.015625 13.480469 -11.394531 14.699219 -11.425781 C 14.8125 -11.425781 14.828125 -11.558594 14.699219 -11.558594 C 13.679688 -11.558594 13.398438 -11.507812 12.972656 -11.507812 L 10.585938 -11.507812 C 10.175781 -11.507812 9.898438 -11.558594 8.863281 -11.558594 C 8.746094 -11.558594 8.746094 -11.425781 8.863281 -11.425781 C 10.09375 -11.394531 10.441406 -11.015625 10.441406 -8.632812 L 10.441406 -6.035156 C 9.484375 -6.035156 8.679688 -6.050781 7.679688 -6.050781 C 6.773438 -6.050781 5.785156 -6.035156 4.851562 -6.035156 L 4.851562 -8.632812 C 4.851562 -11.015625 5.195312 -11.394531 6.410156 -11.425781 C 6.542969 -11.425781 6.542969 -11.558594 6.410156 -11.558594 C 5.390625 -11.558594 5.113281 -11.507812 4.703125 -11.507812 L 2.300781 -11.507812 C 1.890625 -11.507812 1.609375 -11.558594 0.59375 -11.558594 C 0.460938 -11.558594 0.460938 -11.425781 0.59375 -11.425781 C 1.808594 -11.394531 2.152344 -11.015625 2.152344 -8.632812 L 2.152344 -2.878906 C 2.152344 -0.492188 1.808594 -0.113281 0.59375 -0.0820312 C 0.460938 -0.0820312 0.460938 0.0507812 0.59375 0.0507812 C 1.609375 0.0507812 1.890625 0 2.300781 0 L 4.703125 0 C 5.113281 0 5.390625 0.0507812 6.410156 0.0507812 C 6.542969 0.0507812 6.542969 -0.0820312 6.410156 -0.0820312 C 5.195312 -0.113281 4.851562 -0.492188 4.851562 -2.878906 L 4.851562 -5.851562 C 5.785156 -5.851562 6.773438 -5.820312 7.679688 -5.820312 C 8.679688 -5.820312 9.503906 -5.851562 10.441406 -5.851562 L 10.441406 -2.878906 C 10.441406 -0.492188 10.09375 -0.113281 8.863281 -0.0820312 C 8.746094 -0.0820312 8.746094 0.0507812 8.863281 0.0507812 C 9.898438 0.0507812 10.175781 0 10.585938 0 L 12.972656 0 C 13.398438 0 13.679688 0.0507812 14.699219 0.0507812 C 14.828125 0.0507812 14.8125 -0.0820312 14.699219 -0.0820312 Z M 14.699219 -0.0820312 "/></g></g></g><g fill="#000000" fill-opacity="1"><g transform="translate(101.978012, 22.319867)"><g><path d="M 5.246094 0.214844 C 8.089844 0.214844 10.292969 -1.777344 10.292969 -4.242188 C 10.292969 -6.824219 8.417969 -8.597656 5.574219 -8.597656 C 2.628906 -8.597656 0.378906 -6.609375 0.378906 -4.027344 C 0.378906 -1.445312 2.316406 0.214844 5.246094 0.214844 Z M 5.6875 -0.03125 C 3.863281 -0.03125 2.941406 -3.207031 2.941406 -5.210938 C 2.941406 -7.367188 3.75 -8.320312 4.933594 -8.351562 C 6.789062 -8.382812 7.726562 -5.195312 7.726562 -3.140625 C 7.726562 -1.019531 6.886719 -0.03125 5.6875 -0.03125 Z M 5.6875 -0.03125 "/></g></g></g><g fill="#000000" fill-opacity="1"><g transform="translate(112.664448, 22.319867)"><g><path d="M 9.847656 -3.089844 L 9.847656 -8.550781 C 9.847656 -8.597656 9.78125 -8.613281 9.714844 -8.597656 C 9.074219 -8.300781 7.59375 -7.941406 6.3125 -7.824219 C 6.246094 -7.808594 6.246094 -7.726562 6.3125 -7.695312 C 7.25 -7.449219 7.429688 -6.789062 7.429688 -5.390625 L 7.429688 -2.089844 C 6.707031 -1.347656 6.148438 -1.085938 5.34375 -1.085938 C 4.308594 -1.085938 3.765625 -1.675781 3.765625 -3.648438 L 3.765625 -8.550781 C 3.765625 -8.582031 3.714844 -8.632812 3.648438 -8.597656 C 2.992188 -8.300781 1.546875 -7.957031 0.230469 -7.824219 C 0.164062 -7.808594 0.179688 -7.710938 0.230469 -7.695312 C 1.183594 -7.429688 1.347656 -6.789062 1.347656 -5.390625 L 1.347656 -3.402344 C 1.347656 -0.988281 2.171875 0.214844 3.980469 0.214844 C 5.410156 0.214844 6.660156 -0.722656 7.496094 -1.90625 L 7.53125 -1.90625 C 7.578125 -1.085938 7.660156 -0.410156 7.859375 0.179688 C 7.875 0.230469 7.925781 0.246094 7.988281 0.214844 C 8.632812 -0.0820312 9.699219 -0.394531 10.964844 -0.558594 C 11.046875 -0.574219 11.046875 -0.675781 10.964844 -0.691406 C 9.964844 -1.019531 9.847656 -1.875 9.847656 -3.089844 Z M 9.847656 -3.089844 "/></g></g></g><g fill="#000000" fill-opacity="1"><g transform="translate(124.07427, 22.319867)"><g><path d="M 4.769531 0.214844 C 6.410156 0.214844 8.21875 -0.527344 8.21875 -2.613281 C 8.21875 -3.894531 7.054688 -4.71875 5.34375 -5.210938 L 4.242188 -5.507812 C 2.941406 -5.886719 2.367188 -6.132812 2.367188 -7.035156 C 2.367188 -7.726562 2.878906 -8.382812 3.765625 -8.382812 C 5.113281 -8.382812 6.953125 -6.707031 7.546875 -4.996094 C 7.5625 -4.964844 7.613281 -4.964844 7.613281 -5.015625 L 6.972656 -8.730469 C 6.953125 -8.78125 6.9375 -8.78125 6.90625 -8.730469 C 6.722656 -8.515625 6.542969 -8.300781 6.148438 -8.300781 C 5.558594 -8.300781 4.769531 -8.597656 3.960938 -8.597656 C 2.433594 -8.597656 0.773438 -7.761719 0.773438 -5.902344 C 0.773438 -4.519531 1.792969 -3.730469 3.402344 -3.273438 L 4.539062 -2.941406 C 5.65625 -2.628906 6.625 -2.316406 6.625 -1.414062 C 6.625 -0.625 6 0 4.898438 0 C 3.335938 0 1.609375 -1.511719 0.773438 -3.632812 C 0.738281 -3.667969 0.675781 -3.683594 0.675781 -3.632812 L 1.398438 0.445312 C 1.429688 0.507812 1.464844 0.492188 1.480469 0.445312 C 1.660156 0.214844 1.921875 -0.0664062 2.382812 -0.0664062 C 3.007812 -0.0664062 3.796875 0.214844 4.769531 0.214844 Z M 4.769531 0.214844 "/></g></g></g><g fill="#000000" fill-opacity="1"><g transform="translate(132.853576, 22.319867)"><g><path d="M 9.503906 -4.0625 C 8.828125 -2.648438 7.742188 -1.414062 6.015625 -1.414062 C 3.683594 -1.414062 2.679688 -3.207031 2.664062 -5.292969 L 8.8125 -5.292969 C 8.863281 -5.492188 8.878906 -5.640625 8.878906 -5.820312 C 8.878906 -7.101562 7.5625 -8.597656 5.308594 -8.597656 C 2.777344 -8.597656 0.378906 -6.609375 0.378906 -4.109375 C 0.378906 -1.527344 2.269531 0.179688 4.816406 0.179688 C 7.660156 0.179688 9.074219 -2.664062 9.652344 -3.996094 C 9.683594 -4.078125 9.585938 -4.144531 9.503906 -4.0625 Z M 4.964844 -8.367188 C 6.164062 -8.367188 6.722656 -7.53125 6.722656 -6.429688 C 6.722656 -5.769531 6.511719 -5.507812 5.558594 -5.507812 L 2.664062 -5.507812 C 2.730469 -7.332031 3.847656 -8.367188 4.964844 -8.367188 Z M 4.964844 -8.367188 "/></g></g></g></svg>